<mxfile host="65bd71144e">
    <diagram id="C5RBs43oDa-KdzZeNtuy" name="Page-1">
        <mxGraphModel dx="894" dy="378" grid="1" gridSize="10" guides="1" tooltips="1" connect="1" arrows="1" fold="1" page="1" pageScale="1" pageWidth="1654" pageHeight="2336" math="0" shadow="0">
            <root>
                <mxCell id="WIyWlLk6GJQsqaUBKTNV-0"/>
                <mxCell id="WIyWlLk6GJQsqaUBKTNV-1" parent="WIyWlLk6GJQsqaUBKTNV-0"/>
                <mxCell id="pEFA_oAw1NmX-g2QnXqx-65" style="rounded=0;orthogonalLoop=1;jettySize=auto;html=1;exitX=0.5;exitY=0.5;exitDx=0;exitDy=0;exitPerimeter=0;entryX=0;entryY=0.5;entryDx=0;entryDy=0;endArrow=none;startFill=0;" parent="WIyWlLk6GJQsqaUBKTNV-1" source="pEFA_oAw1NmX-g2QnXqx-0" target="pEFA_oAw1NmX-g2QnXqx-3" edge="1">
                    <mxGeometry relative="1" as="geometry"/>
                </mxCell>
                <mxCell id="pEFA_oAw1NmX-g2QnXqx-67" style="rounded=0;orthogonalLoop=1;jettySize=auto;html=1;exitX=0.5;exitY=0.5;exitDx=0;exitDy=0;exitPerimeter=0;entryX=0;entryY=0;entryDx=0;entryDy=0;endArrow=none;startFill=0;" parent="WIyWlLk6GJQsqaUBKTNV-1" source="pEFA_oAw1NmX-g2QnXqx-0" target="pEFA_oAw1NmX-g2QnXqx-16" edge="1">
                    <mxGeometry relative="1" as="geometry"/>
                </mxCell>
                <mxCell id="pEFA_oAw1NmX-g2QnXqx-68" style="rounded=0;orthogonalLoop=1;jettySize=auto;html=1;exitX=0.5;exitY=0.5;exitDx=0;exitDy=0;exitPerimeter=0;endArrow=none;startFill=0;" parent="WIyWlLk6GJQsqaUBKTNV-1" source="pEFA_oAw1NmX-g2QnXqx-0" target="pEFA_oAw1NmX-g2QnXqx-20" edge="1">
                    <mxGeometry relative="1" as="geometry"/>
                </mxCell>
                <mxCell id="pEFA_oAw1NmX-g2QnXqx-69" style="rounded=0;orthogonalLoop=1;jettySize=auto;html=1;exitX=0.5;exitY=0.5;exitDx=0;exitDy=0;exitPerimeter=0;endArrow=none;startFill=0;" parent="WIyWlLk6GJQsqaUBKTNV-1" source="pEFA_oAw1NmX-g2QnXqx-0" target="pEFA_oAw1NmX-g2QnXqx-22" edge="1">
                    <mxGeometry relative="1" as="geometry"/>
                </mxCell>
                <mxCell id="pEFA_oAw1NmX-g2QnXqx-70" style="rounded=0;orthogonalLoop=1;jettySize=auto;html=1;exitX=0.5;exitY=0.5;exitDx=0;exitDy=0;exitPerimeter=0;endArrow=none;startFill=0;" parent="WIyWlLk6GJQsqaUBKTNV-1" source="pEFA_oAw1NmX-g2QnXqx-0" target="pEFA_oAw1NmX-g2QnXqx-24" edge="1">
                    <mxGeometry relative="1" as="geometry"/>
                </mxCell>
                <mxCell id="pEFA_oAw1NmX-g2QnXqx-72" style="rounded=0;orthogonalLoop=1;jettySize=auto;html=1;exitX=0.5;exitY=0.5;exitDx=0;exitDy=0;exitPerimeter=0;endArrow=none;startFill=0;" parent="WIyWlLk6GJQsqaUBKTNV-1" source="pEFA_oAw1NmX-g2QnXqx-0" target="pEFA_oAw1NmX-g2QnXqx-29" edge="1">
                    <mxGeometry relative="1" as="geometry"/>
                </mxCell>
                <mxCell id="pEFA_oAw1NmX-g2QnXqx-141" style="rounded=0;orthogonalLoop=1;jettySize=auto;html=1;exitX=0.5;exitY=0.5;exitDx=0;exitDy=0;exitPerimeter=0;entryX=0;entryY=0.5;entryDx=0;entryDy=0;endArrow=none;startFill=0;" parent="WIyWlLk6GJQsqaUBKTNV-1" source="pEFA_oAw1NmX-g2QnXqx-0" edge="1">
                    <mxGeometry relative="1" as="geometry"/>
                </mxCell>
                <mxCell id="pEFA_oAw1NmX-g2QnXqx-147" style="rounded=0;orthogonalLoop=1;jettySize=auto;html=1;exitX=0.5;exitY=0.5;exitDx=0;exitDy=0;exitPerimeter=0;entryX=0;entryY=0.5;entryDx=0;entryDy=0;endArrow=none;startFill=0;" parent="WIyWlLk6GJQsqaUBKTNV-1" source="pEFA_oAw1NmX-g2QnXqx-0" target="pEFA_oAw1NmX-g2QnXqx-145" edge="1">
                    <mxGeometry relative="1" as="geometry"/>
                </mxCell>
                <mxCell id="pEFA_oAw1NmX-g2QnXqx-0" value="&lt;font style=&quot;font-size: 26px;&quot;&gt;User&lt;/font&gt;&lt;div&gt;&lt;br&gt;&lt;/div&gt;" style="shape=umlActor;verticalLabelPosition=bottom;verticalAlign=top;html=1;outlineConnect=0;" parent="WIyWlLk6GJQsqaUBKTNV-1" vertex="1">
                    <mxGeometry x="140" y="480" width="80" height="140" as="geometry"/>
                </mxCell>
                <mxCell id="pEFA_oAw1NmX-g2QnXqx-117" style="rounded=0;orthogonalLoop=1;jettySize=auto;html=1;exitX=1;exitY=0.5;exitDx=0;exitDy=0;entryX=0;entryY=0.5;entryDx=0;entryDy=0;dashed=1;" parent="WIyWlLk6GJQsqaUBKTNV-1" source="pEFA_oAw1NmX-g2QnXqx-3" target="pEFA_oAw1NmX-g2QnXqx-98" edge="1">
                    <mxGeometry relative="1" as="geometry"/>
                </mxCell>
                <mxCell id="pEFA_oAw1NmX-g2QnXqx-3" value="Se connecter" style="ellipse;whiteSpace=wrap;html=1;" parent="WIyWlLk6GJQsqaUBKTNV-1" vertex="1">
                    <mxGeometry x="450" y="200" width="166" height="60" as="geometry"/>
                </mxCell>
                <mxCell id="pEFA_oAw1NmX-g2QnXqx-118" style="rounded=0;orthogonalLoop=1;jettySize=auto;html=1;exitX=1;exitY=0.5;exitDx=0;exitDy=0;entryX=0;entryY=0.5;entryDx=0;entryDy=0;dashed=1;" parent="WIyWlLk6GJQsqaUBKTNV-1" source="pEFA_oAw1NmX-g2QnXqx-12" target="pEFA_oAw1NmX-g2QnXqx-98" edge="1">
                    <mxGeometry relative="1" as="geometry"/>
                </mxCell>
                <mxCell id="pEFA_oAw1NmX-g2QnXqx-12" value="RÃ©initialiser le mot de pass" style="ellipse;whiteSpace=wrap;html=1;" parent="WIyWlLk6GJQsqaUBKTNV-1" vertex="1">
                    <mxGeometry x="450" y="280" width="166" height="60" as="geometry"/>
                </mxCell>
                <mxCell id="pEFA_oAw1NmX-g2QnXqx-119" style="rounded=0;orthogonalLoop=1;jettySize=auto;html=1;exitX=1;exitY=0.5;exitDx=0;exitDy=0;entryX=0;entryY=0.5;entryDx=0;entryDy=0;dashed=1;" parent="WIyWlLk6GJQsqaUBKTNV-1" source="pEFA_oAw1NmX-g2QnXqx-16" target="pEFA_oAw1NmX-g2QnXqx-98" edge="1">
                    <mxGeometry relative="1" as="geometry"/>
                </mxCell>
                <mxCell id="pEFA_oAw1NmX-g2QnXqx-16" value=" logout" style="ellipse;whiteSpace=wrap;html=1;" parent="WIyWlLk6GJQsqaUBKTNV-1" vertex="1">
                    <mxGeometry x="450" y="370" width="166" height="60" as="geometry"/>
                </mxCell>
                <mxCell id="pEFA_oAw1NmX-g2QnXqx-120" style="rounded=0;orthogonalLoop=1;jettySize=auto;html=1;exitX=1;exitY=0.5;exitDx=0;exitDy=0;dashed=1;" parent="WIyWlLk6GJQsqaUBKTNV-1" source="pEFA_oAw1NmX-g2QnXqx-20" edge="1">
                    <mxGeometry relative="1" as="geometry">
                        <mxPoint x="1280" y="730" as="targetPoint"/>
                    </mxGeometry>
                </mxCell>
                <mxCell id="pEFA_oAw1NmX-g2QnXqx-20" value="Modifier profile" style="ellipse;whiteSpace=wrap;html=1;" parent="WIyWlLk6GJQsqaUBKTNV-1" vertex="1">
                    <mxGeometry x="450" y="460" width="166" height="60" as="geometry"/>
                </mxCell>
                <mxCell id="pEFA_oAw1NmX-g2QnXqx-121" style="rounded=0;orthogonalLoop=1;jettySize=auto;html=1;exitX=1;exitY=0.5;exitDx=0;exitDy=0;entryX=0;entryY=0.5;entryDx=0;entryDy=0;dashed=1;" parent="WIyWlLk6GJQsqaUBKTNV-1" source="pEFA_oAw1NmX-g2QnXqx-22" target="pEFA_oAw1NmX-g2QnXqx-98" edge="1">
                    <mxGeometry relative="1" as="geometry"/>
                </mxCell>
                <mxCell id="pEFA_oAw1NmX-g2QnXqx-22" value="   Envoyer des messages" style="ellipse;whiteSpace=wrap;html=1;" parent="WIyWlLk6GJQsqaUBKTNV-1" vertex="1">
                    <mxGeometry x="450" y="550" width="166" height="60" as="geometry"/>
                </mxCell>
                <mxCell id="pEFA_oAw1NmX-g2QnXqx-122" style="rounded=0;orthogonalLoop=1;jettySize=auto;html=1;exitX=1;exitY=0.5;exitDx=0;exitDy=0;entryX=0;entryY=0.5;entryDx=0;entryDy=0;dashed=1;" parent="WIyWlLk6GJQsqaUBKTNV-1" source="pEFA_oAw1NmX-g2QnXqx-24" target="pEFA_oAw1NmX-g2QnXqx-98" edge="1">
                    <mxGeometry relative="1" as="geometry"/>
                </mxCell>
                <mxCell id="pEFA_oAw1NmX-g2QnXqx-24" value="    Recevoir des messages" style="ellipse;whiteSpace=wrap;html=1;" parent="WIyWlLk6GJQsqaUBKTNV-1" vertex="1">
                    <mxGeometry x="450" y="640" width="166" height="60" as="geometry"/>
                </mxCell>
                <mxCell id="pEFA_oAw1NmX-g2QnXqx-124" style="rounded=0;orthogonalLoop=1;jettySize=auto;html=1;exitX=1;exitY=0.5;exitDx=0;exitDy=0;entryX=0;entryY=0.5;entryDx=0;entryDy=0;dashed=1;" parent="WIyWlLk6GJQsqaUBKTNV-1" source="pEFA_oAw1NmX-g2QnXqx-29" target="pEFA_oAw1NmX-g2QnXqx-98" edge="1">
                    <mxGeometry relative="1" as="geometry"/>
                </mxCell>
                <mxCell id="pEFA_oAw1NmX-g2QnXqx-95" style="rounded=0;orthogonalLoop=1;jettySize=auto;html=1;exitX=0.5;exitY=0.5;exitDx=0;exitDy=0;exitPerimeter=0;endArrow=none;startFill=0;" parent="WIyWlLk6GJQsqaUBKTNV-1" source="pEFA_oAw1NmX-g2QnXqx-43" target="pEFA_oAw1NmX-g2QnXqx-44" edge="1">
                    <mxGeometry relative="1" as="geometry"/>
                </mxCell>
                <mxCell id="pEFA_oAw1NmX-g2QnXqx-96" style="rounded=0;orthogonalLoop=1;jettySize=auto;html=1;exitX=0.5;exitY=0.5;exitDx=0;exitDy=0;exitPerimeter=0;endArrow=none;startFill=0;" parent="WIyWlLk6GJQsqaUBKTNV-1" source="pEFA_oAw1NmX-g2QnXqx-43" target="pEFA_oAw1NmX-g2QnXqx-45" edge="1">
                    <mxGeometry relative="1" as="geometry"/>
                </mxCell>
                <mxCell id="pEFA_oAw1NmX-g2QnXqx-43" value="&lt;div&gt;&lt;font style=&quot;font-size: 26px;&quot;&gt;Admin&lt;/font&gt;&lt;/div&gt;" style="shape=umlActor;verticalLabelPosition=bottom;verticalAlign=top;html=1;outlineConnect=0;" parent="WIyWlLk6GJQsqaUBKTNV-1" vertex="1">
                    <mxGeometry x="130" y="1220" width="80" height="140" as="geometry"/>
                </mxCell>
                <mxCell id="pEFA_oAw1NmX-g2QnXqx-135" style="rounded=0;orthogonalLoop=1;jettySize=auto;html=1;exitX=1;exitY=0.5;exitDx=0;exitDy=0;entryX=0;entryY=0.5;entryDx=0;entryDy=0;dashed=1;" parent="WIyWlLk6GJQsqaUBKTNV-1" source="pEFA_oAw1NmX-g2QnXqx-44" target="pEFA_oAw1NmX-g2QnXqx-98" edge="1">
                    <mxGeometry relative="1" as="geometry"/>
                </mxCell>
                <mxCell id="pEFA_oAw1NmX-g2QnXqx-44" value="GÃ©rer les utilisateurs" style="ellipse;whiteSpace=wrap;html=1;" parent="WIyWlLk6GJQsqaUBKTNV-1" vertex="1">
                    <mxGeometry x="440" y="1180" width="166" height="60" as="geometry"/>
                </mxCell>
                <mxCell id="pEFA_oAw1NmX-g2QnXqx-137" style="rounded=0;orthogonalLoop=1;jettySize=auto;html=1;exitX=1;exitY=0.5;exitDx=0;exitDy=0;dashed=1;" parent="WIyWlLk6GJQsqaUBKTNV-1" source="pEFA_oAw1NmX-g2QnXqx-45" edge="1">
                    <mxGeometry relative="1" as="geometry">
                        <mxPoint x="1270" y="730" as="targetPoint"/>
                    </mxGeometry>
                </mxCell>
                <mxCell id="pEFA_oAw1NmX-g2QnXqx-45" value="Superviser stats" style="ellipse;whiteSpace=wrap;html=1;" parent="WIyWlLk6GJQsqaUBKTNV-1" vertex="1">
                    <mxGeometry x="440" y="1290" width="166" height="60" as="geometry"/>
                </mxCell>
                <mxCell id="pEFA_oAw1NmX-g2QnXqx-66" style="rounded=0;orthogonalLoop=1;jettySize=auto;html=1;exitX=0.5;exitY=0.5;exitDx=0;exitDy=0;exitPerimeter=0;entryX=0.072;entryY=0.755;entryDx=0;entryDy=0;entryPerimeter=0;endArrow=none;startFill=0;" parent="WIyWlLk6GJQsqaUBKTNV-1" source="pEFA_oAw1NmX-g2QnXqx-0" target="pEFA_oAw1NmX-g2QnXqx-12" edge="1">
                    <mxGeometry relative="1" as="geometry"/>
                </mxCell>
                <mxCell id="pEFA_oAw1NmX-g2QnXqx-93" style="rounded=0;orthogonalLoop=1;jettySize=auto;html=1;exitX=0;exitY=0.5;exitDx=0;exitDy=0;" parent="WIyWlLk6GJQsqaUBKTNV-1" source="pEFA_oAw1NmX-g2QnXqx-88" edge="1">
                    <mxGeometry relative="1" as="geometry">
                        <mxPoint x="610" y="1220" as="targetPoint"/>
                    </mxGeometry>
                </mxCell>
                <mxCell id="pEFA_oAw1NmX-g2QnXqx-94" value="&lt;font style=&quot;font-size: 13px;&quot;&gt;&amp;lt;&amp;lt;extend&amp;gt;&amp;gt;&lt;/font&gt;" style="edgeLabel;html=1;align=center;verticalAlign=middle;resizable=0;points=[];rotation=0;" parent="WIyWlLk6GJQsqaUBKTNV-1" connectable="0" vertex="1">
                    <mxGeometry x="769.9956668219529" y="1209.996900292315" as="geometry"/>
                </mxCell>
                <mxCell id="pEFA_oAw1NmX-g2QnXqx-98" value="  S&#39;authentifier" style="ellipse;whiteSpace=wrap;html=1;" parent="WIyWlLk6GJQsqaUBKTNV-1" vertex="1">
                    <mxGeometry x="1280" y="700" width="166" height="60" as="geometry"/>
                </mxCell>
                <mxCell id="pEFA_oAw1NmX-g2QnXqx-126" value="&lt;font style=&quot;font-size: 13px;&quot;&gt;&amp;lt;&amp;lt;include&amp;gt;&amp;gt;&lt;/font&gt;" style="edgeLabel;html=1;align=center;verticalAlign=middle;resizable=0;points=[];rotation=35;" parent="WIyWlLk6GJQsqaUBKTNV-1" connectable="0" vertex="1">
                    <mxGeometry x="839.9966304262246" y="370.0022211602038" as="geometry">
                        <mxPoint x="-23.460853774990028" y="4.071495642867707" as="offset"/>
                    </mxGeometry>
                </mxCell>
                <mxCell id="pEFA_oAw1NmX-g2QnXqx-127" value="&lt;font style=&quot;font-size: 13px;&quot;&gt;&amp;lt;&amp;lt;include&amp;gt;&amp;gt;&lt;/font&gt;" style="edgeLabel;html=1;align=center;verticalAlign=middle;resizable=0;points=[];rotation=35;" parent="WIyWlLk6GJQsqaUBKTNV-1" connectable="0" vertex="1">
                    <mxGeometry x="839.9966304262246" y="430.0022211602038" as="geometry">
                        <mxPoint x="-23.460853774990028" y="4.071495642867707" as="offset"/>
                    </mxGeometry>
                </mxCell>
                <mxCell id="pEFA_oAw1NmX-g2QnXqx-128" value="&lt;font style=&quot;font-size: 13px;&quot;&gt;&amp;lt;&amp;lt;include&amp;gt;&amp;gt;&lt;/font&gt;" style="edgeLabel;html=1;align=center;verticalAlign=middle;resizable=0;points=[];rotation=35;" parent="WIyWlLk6GJQsqaUBKTNV-1" connectable="0" vertex="1">
                    <mxGeometry x="859.9966304262246" y="500.0022211602038" as="geometry">
                        <mxPoint x="-23.460853774990028" y="4.071495642867707" as="offset"/>
                    </mxGeometry>
                </mxCell>
                <mxCell id="pEFA_oAw1NmX-g2QnXqx-129" value="&lt;font style=&quot;font-size: 13px;&quot;&gt;&amp;lt;&amp;lt;include&amp;gt;&amp;gt;&lt;/font&gt;" style="edgeLabel;html=1;align=center;verticalAlign=middle;resizable=0;points=[];rotation=35;" parent="WIyWlLk6GJQsqaUBKTNV-1" connectable="0" vertex="1">
                    <mxGeometry x="889.9966304262246" y="570.0022211602038" as="geometry">
                        <mxPoint x="-23.460853774990028" y="4.071495642867707" as="offset"/>
                    </mxGeometry>
                </mxCell>
                <mxCell id="pEFA_oAw1NmX-g2QnXqx-130" value="&lt;font style=&quot;font-size: 13px;&quot;&gt;&amp;lt;&amp;lt;include&amp;gt;&amp;gt;&lt;/font&gt;" style="edgeLabel;html=1;align=center;verticalAlign=middle;resizable=0;points=[];rotation=15;" parent="WIyWlLk6GJQsqaUBKTNV-1" connectable="0" vertex="1">
                    <mxGeometry x="879.9966304262246" y="620.0022211602038" as="geometry">
                        <mxPoint x="-23.460853774990028" y="4.071495642867707" as="offset"/>
                    </mxGeometry>
                </mxCell>
                <mxCell id="pEFA_oAw1NmX-g2QnXqx-131" value="&lt;font style=&quot;font-size: 13px;&quot;&gt;&amp;lt;&amp;lt;include&amp;gt;&amp;gt;&lt;/font&gt;" style="edgeLabel;html=1;align=center;verticalAlign=middle;resizable=0;points=[];rotation=15;" parent="WIyWlLk6GJQsqaUBKTNV-1" connectable="0" vertex="1">
                    <mxGeometry x="879.9966304262246" y="680.0022211602038" as="geometry">
                        <mxPoint x="-23.460853774990028" y="4.071495642867707" as="offset"/>
                    </mxGeometry>
                </mxCell>
                <mxCell id="pEFA_oAw1NmX-g2QnXqx-136" value="&lt;font style=&quot;font-size: 13px;&quot;&gt;&amp;lt;&amp;lt;include&amp;gt;&amp;gt;&lt;/font&gt;" style="edgeLabel;html=1;align=center;verticalAlign=middle;resizable=0;points=[];rotation=-40;" parent="WIyWlLk6GJQsqaUBKTNV-1" connectable="0" vertex="1">
                    <mxGeometry x="709.9966304262246" y="1110.0022211602038" as="geometry">
                        <mxPoint x="-23.460853774990028" y="4.071495642867707" as="offset"/>
                    </mxGeometry>
                </mxCell>
                <mxCell id="pEFA_oAw1NmX-g2QnXqx-138" value="&lt;font style=&quot;font-size: 13px;&quot;&gt;&amp;lt;&amp;lt;include&amp;gt;&amp;gt;&lt;/font&gt;" style="edgeLabel;html=1;align=center;verticalAlign=middle;resizable=0;points=[];rotation=-40;" parent="WIyWlLk6GJQsqaUBKTNV-1" connectable="0" vertex="1">
                    <mxGeometry x="806.9966304262246" y="1120.0022211602038" as="geometry">
                        <mxPoint x="0.366034289271326" y="0.5672974217107303" as="offset"/>
                    </mxGeometry>
                </mxCell>
                <mxCell id="pEFA_oAw1NmX-g2QnXqx-100" style="edgeStyle=orthogonalEdgeStyle;rounded=0;orthogonalLoop=1;jettySize=auto;html=1;exitX=1;exitY=0.5;exitDx=0;exitDy=0;entryX=0;entryY=0.5;entryDx=0;entryDy=0;" parent="WIyWlLk6GJQsqaUBKTNV-1" target="pEFA_oAw1NmX-g2QnXqx-98" edge="1">
                    <mxGeometry relative="1" as="geometry"/>
                </mxCell>
                <mxCell id="pEFA_oAw1NmX-g2QnXqx-142" value="&lt;font style=&quot;font-size: 30px;&quot;&gt;Application de chat&lt;/font&gt;" style="swimlane;whiteSpace=wrap;html=1;" parent="WIyWlLk6GJQsqaUBKTNV-1" vertex="1">
                    <mxGeometry x="100" y="60" width="1500" height="1530" as="geometry"/>
                </mxCell>
                <mxCell id="pEFA_oAw1NmX-g2QnXqx-27" value="CrÃ©er groupe" style="ellipse;whiteSpace=wrap;html=1;" parent="pEFA_oAw1NmX-g2QnXqx-142" vertex="1">
                    <mxGeometry x="766" y="750" width="166" height="50" as="geometry"/>
                </mxCell>
                <mxCell id="pEFA_oAw1NmX-g2QnXqx-29" value="&lt;div&gt;&amp;nbsp;GÃ©rer les&lt;span style=&quot;background-color: transparent; color: light-dark(rgb(0, 0, 0), rgb(255, 255, 255));&quot;&gt;&amp;nbsp;groupes&amp;nbsp;&lt;/span&gt;&lt;/div&gt;" style="ellipse;whiteSpace=wrap;html=1;" parent="pEFA_oAw1NmX-g2QnXqx-142" vertex="1">
                    <mxGeometry x="350" y="670" width="166" height="60" as="geometry"/>
                </mxCell>
                <mxCell id="pEFA_oAw1NmX-g2QnXqx-76" value="&lt;div&gt;  Supprimer membre&lt;br&gt;&lt;/div&gt;" style="ellipse;whiteSpace=wrap;html=1;" parent="pEFA_oAw1NmX-g2QnXqx-142" vertex="1">
                    <mxGeometry x="560" y="890" width="166" height="60" as="geometry"/>
                </mxCell>
                <mxCell id="pEFA_oAw1NmX-g2QnXqx-82" style="rounded=0;orthogonalLoop=1;jettySize=auto;html=1;exitX=0;exitY=0.5;exitDx=0;exitDy=0;" parent="pEFA_oAw1NmX-g2QnXqx-142" source="pEFA_oAw1NmX-g2QnXqx-76" target="pEFA_oAw1NmX-g2QnXqx-29" edge="1">
                    <mxGeometry relative="1" as="geometry"/>
                </mxCell>
                <mxCell id="pEFA_oAw1NmX-g2QnXqx-75" value="&lt;div&gt; Ajouter membre&lt;br/&gt;&lt;/div&gt;" style="ellipse;whiteSpace=wrap;html=1;" parent="pEFA_oAw1NmX-g2QnXqx-142" vertex="1">
                    <mxGeometry x="693" y="820" width="166" height="60" as="geometry"/>
                </mxCell>
                <mxCell id="pEFA_oAw1NmX-g2QnXqx-81" style="rounded=0;orthogonalLoop=1;jettySize=auto;html=1;exitX=0;exitY=0.5;exitDx=0;exitDy=0;" parent="pEFA_oAw1NmX-g2QnXqx-142" source="pEFA_oAw1NmX-g2QnXqx-75" target="pEFA_oAw1NmX-g2QnXqx-29" edge="1">
                    <mxGeometry relative="1" as="geometry"/>
                </mxCell>
                <mxCell id="pEFA_oAw1NmX-g2QnXqx-83" value="&lt;font style=&quot;font-size: 13px;&quot;&gt;&amp;lt;&amp;lt;extend&amp;gt;&amp;gt;&lt;/font&gt;" style="edgeLabel;html=1;align=center;verticalAlign=middle;resizable=0;points=[];rotation=0;" parent="pEFA_oAw1NmX-g2QnXqx-81" connectable="0" vertex="1">
                    <mxGeometry x="-0.5869" y="-1" relative="1" as="geometry">
                        <mxPoint x="-13" y="-21" as="offset"/>
                    </mxGeometry>
                </mxCell>
                <mxCell id="pEFA_oAw1NmX-g2QnXqx-143" style="rounded=0;orthogonalLoop=1;jettySize=auto;html=1;exitX=0;exitY=0.5;exitDx=0;exitDy=0;entryX=0.967;entryY=0.771;entryDx=0;entryDy=0;entryPerimeter=0;endArrow=classic;endFill=1;" parent="pEFA_oAw1NmX-g2QnXqx-142" source="pEFA_oAw1NmX-g2QnXqx-27" target="pEFA_oAw1NmX-g2QnXqx-29" edge="1">
                    <mxGeometry relative="1" as="geometry"/>
                </mxCell>
                <mxCell id="pEFA_oAw1NmX-g2QnXqx-133" value="&lt;span style=&quot;font-size: 13px;&quot;&gt;&amp;lt;&amp;lt;extend&amp;gt;&amp;gt;&lt;/span&gt;" style="edgeLabel;html=1;align=center;verticalAlign=middle;resizable=0;points=[];rotation=5;" parent="pEFA_oAw1NmX-g2QnXqx-142" connectable="0" vertex="1">
                    <mxGeometry x="719.9966304262246" y="750.0022211602038" as="geometry">
                        <mxPoint x="-23.460853774990028" y="4.071495642867707" as="offset"/>
                    </mxGeometry>
                </mxCell>
                <mxCell id="pEFA_oAw1NmX-g2QnXqx-125" value="&lt;font style=&quot;font-size: 13px;&quot;&gt;&amp;lt;&amp;lt;extend&amp;gt;&amp;gt;&lt;/font&gt;" style="edgeLabel;html=1;align=center;verticalAlign=middle;resizable=0;points=[];rotation=5;" parent="pEFA_oAw1NmX-g2QnXqx-142" connectable="0" vertex="1">
                    <mxGeometry x="559.9966304262246" y="850.0022211602038" as="geometry">
                        <mxPoint x="-23.460853774990028" y="4.071495642867707" as="offset"/>
                    </mxGeometry>
                </mxCell>
                <mxCell id="pEFA_oAw1NmX-g2QnXqx-144" value="&lt;font style=&quot;font-size: 13px;&quot;&gt;&amp;lt;&amp;lt;include&amp;gt;&amp;gt;&lt;/font&gt;" style="edgeLabel;html=1;align=center;verticalAlign=middle;resizable=0;points=[];rotation=0;" parent="pEFA_oAw1NmX-g2QnXqx-142" connectable="0" vertex="1">
                    <mxGeometry x="802.9966304262246" y="680.0022211602038" as="geometry">
                        <mxPoint x="-23.460853774990028" y="4.071495642867707" as="offset"/>
                    </mxGeometry>
                </mxCell>
                <mxCell id="pEFA_oAw1NmX-g2QnXqx-145" value="&amp;nbsp;S&#39;inscrire&amp;nbsp;" style="ellipse;whiteSpace=wrap;html=1;" parent="pEFA_oAw1NmX-g2QnXqx-142" vertex="1">
                    <mxGeometry x="340" y="60" width="166" height="60" as="geometry"/>
                </mxCell>
                <mxCell id="pEFA_oAw1NmX-g2QnXqx-150" value="&lt;font style=&quot;font-size: 13px;&quot;&gt;&amp;lt;&amp;lt;include&amp;gt;&amp;gt;&lt;/font&gt;" style="edgeLabel;html=1;align=center;verticalAlign=middle;resizable=0;points=[];rotation=35;" parent="pEFA_oAw1NmX-g2QnXqx-142" connectable="0" vertex="1">
                    <mxGeometry x="782.9966304262246" y="260.0022211602038" as="geometry">
                        <mxPoint x="-23.460853774990028" y="4.071495642867707" as="offset"/>
                    </mxGeometry>
                </mxCell>
                <mxCell id="pEFA_oAw1NmX-g2QnXqx-88" value=" Suspendre un utilisateur" style="ellipse;whiteSpace=wrap;html=1;" parent="pEFA_oAw1NmX-g2QnXqx-142" vertex="1">
                    <mxGeometry x="720" y="1150" width="166" height="60" as="geometry"/>
                </mxCell>
                <mxCell id="pEFA_oAw1NmX-g2QnXqx-149" style="rounded=0;orthogonalLoop=1;jettySize=auto;html=1;exitX=1;exitY=0.5;exitDx=0;exitDy=0;entryX=0;entryY=0.5;entryDx=0;entryDy=0;dashed=1;" parent="WIyWlLk6GJQsqaUBKTNV-1" source="pEFA_oAw1NmX-g2QnXqx-145" target="pEFA_oAw1NmX-g2QnXqx-98" edge="1">
                    <mxGeometry relative="1" as="geometry"/>
                </mxCell>
            </root>
        </mxGraphModel>
    </diagram>
</mxfile>